<svg xmlns="http://www.w3.org/2000/svg" width="250" height="250" viewBox="0 0 250 250">
<!-- SVG created with Arrow, by QuiverAI (https://quiver.ai) -->
  <path d="m233.9 58.99-112.9-49.99-112 50.34v6.04h224.9v-6.39z" fill="#EFE5D0"/>
  <path d="m227.3 67.77h-212v14.94h211.6l0.38-14.94z" fill="#F3EEDD"/>
  <path d="m237 209.8-105.7-0.21v9.84l5.41 0.64 100.3-0.09v-10.18z" fill="#F3EEDD"/>
  <path d="m230.8 200.1-99.38 0.22v6.43l99.38-0.07v-6.58z" fill="#F3EEDD"/>
  <path d="m110.4 200.3-98.4-0.22v6.65l98.4-0.07v-6.36z" fill="#F3EEDD"/>
  <path d="m5.26 209.6 105.2 0.21v9.27l-5.1 0.91-100-0.17v-10.22z" fill="#F3EEDD"/>
  <path d="m19.73 86.43h23.86c1.51 0 2.53 1.15 2.2 2.7l-0.39 1.78-1.42 1.08h-23.5l-1.85-1.5v-2.53c0-0.85 0.45-1.53 1.1-1.53z" fill="#EFE5D0"/>
  <path d="m22.05 93.42 0.97 0.79-1.79 94.07-2.02 1.31v2.3h27.42v2.4l-0.06 2.82h-29.09v-4.99l1.55-3.18 1.09-0.88 0.57-93.54 1.36-1.1z" fill="#F3EEDD"/>
  <path d="m43.1 93.62-1.09 6.49-1.09 16.99 0.11 41.73-15.88-0.12 6.26-19.18 11.69-45.91z" fill="#F3EEDD"/>
  <path d="m21.3 171.2 7.78 5.75 10.77 2.92 2.75-0.45-0.11 9.11 1.72 0.65-0.11 0.98h-25.29v-1.75l1.76-1.2 0.73-16.01z" fill="#F3EEDD"/>
  <path d="m76.16 86.43h24.4c1.22 0 1.61 1.15 1.33 2.7l-0.33 1.78-1.32 1.08h-24.09l-1.09-1.5v-2.53c0-0.85 0.45-1.53 1.1-1.53z" fill="#EFE5D0"/>
  <path d="m79.41 93.42 1.55 1.21-1.84 93.06-3.74 1.9v7.75l26.88-0.12v-3.07l-1.55-4.56-1.43-1.31-2.43-93.42 1.47-1.44h-18.91z" fill="#F3EEDD"/>
  <path d="m73.94 81.73 13.78-6.95 11.66-1.08 9.47 2.44 3.64 4.21v1.38h-38.55z" fill="#E4D3B9"/>
  <path d="m142.8 86.43h23.33c1.22 0 1.61 1.15 1.33 2.7l-0.33 1.78-1.32 1.08h-23.08l-1.55-1.5v-2.53c0-0.85 0.45-1.53 1.62-1.53z" fill="#EFE5D0"/>
  <path d="m144.9 93.42 1.55 1.21-2.78 93.65-2.17 1.31v7.75h26.88v-4.08l-3.25-3.67-1.93-1.31-0.57-93.42 1.94-1.44h-19.67z" fill="#F3EEDD"/>
  <path d="m131 81.18 6.11-5.76 11.65-1.08 20.35 6.01v1.38l-38.11-0.55z" fill="#E4D3B9"/>
  <path d="m196.8 86.43h24.96c1.51 0 1.96 1.15 1.62 2.7l-0.39 1.78-1.42 1.08h-24.29l-1.21-1.5v-2.53c0-0.85 0.08-1.53 0.73-1.53z" fill="#EFE5D0"/>
  <path d="m199 93.42 1.42 1.61 0.45 22.07-0.45 41.27h17.52l0.73-11.59-0.22-51.92 1.1-1.44h-20.55z" fill="#F3EEDD"/>
  <path d="m219.9 172-7.45 6.06-11.11 1.82-1.27 0.23-0.83 7.98-2.55 1.85-0.28 2.21 27.64-0.11v-2.42l-1.84-1.53-1.21-15.63-1.1-0.46z" fill="#F3EEDD"/>
  <path d="m120.7 17.91-93.52 41.43 14.67-0.08 79.25-37.24 80.37 37.24h12.5l-93.27-41.35z" fill="#2B2A29" stroke="#2B2A29" stroke-miterlimit="10" stroke-width="1.5"/>
  <path d="m18.08 160.8h66.22c0 7.09-13.28 18.04-31.57 18.04-19.47 0-32.35-9.56-35.77-17.2l1.12-0.84z" fill="#2B2A29" stroke="#FEFFFE" stroke-miterlimit="10" stroke-width="1.5"/>
  <path d="m158.7 160.5h66.22c0 7.08-13.28 18.38-33.72 18.38-17.75 0-30.01-10.73-32.97-17.55l0.47-0.83z" fill="#2B2A29" stroke="#FEFFFE" stroke-miterlimit="10" stroke-width="1.5"/>
  <path d="m191.3 71.28c-4.12 0-5.39 3.4-5.39 3.4-8.7 1.3-19.91-7.02-27.44-10.57-10.88-5.17-22.31-4.2-28.42-2.35l-0.1-3.7c-0.23-3.18-1.44-5.64-3.28-7.23v-1.43c2.07-4.21 1.28-7.53-1.51-12.09-1.83-2.81-2.99-4.99-3.27-7.2-0.34-1.32-2.57-1.26-2.96 0-0.84 3.41-3.48 6.91-4.38 8.94-1.89 3.66-2.39 8.04 0.62 11.72v1.31c-2.38 1.38-3.37 2.86-3.88 5.64v3.5c-8.64-1.99-18.44-1.88-28.44 3.41-8.64 4.79-14.75 9.35-25.47 10.15-0.98-2.55-3.67-4.49-7.03-4.49-4.58 0-7.17 3.55-7.17 7.99 0 2.88 1.78 5.38 3.93 6.78l-28.69 74.33h3.72l25.66-67.35v67.35h3.2v-64.3l26.26 64.3h4.23l-28.33-74.19c0.6-0.43 0.82-0.95 1.21-1.58 9.59 1.08 16.7-1.78 24.86-5 7.23-2.7 11.47-5.26 19.82-4.92 4.11 0.17 9.08 2.61 12.18 4.04v-1.43l0.06 6.4 0.9 2.21v0.74l-0.79 1.31h0.97l-1.61 86.15 1.22 0.22c-1.89 2.16-2.5 5.47-2.5 7.57 0 2.27 0.84 5.38 2.62 7.6l-0.45 1.08 0.83 2.22-1.32 1.85-0.84 6.1-0.11 18.26-16.11 5.48h-0.94c-3.91 0-5.9 3.85-5.9 5.55l-2.38 0.23c-3.91 0.73-4.89 4.89-4.83 10.23h82.78v-3.18l-1.67-3.91-3.91-2.81-3.06-0.45c-0.28-3.12-2.92-5.66-5.83-5.66h-2.22l-15.97-5.48v-17.92l-1.84-5.81-1.83-2.05 0.56-3.02-0.98-0.94c1.89-1.94 3.1-5.45 3.1-8.06s-1.21-5.27-2.68-7.02l1.16-0.98-2-85.31 1.4-0.79 1.16-3.01v-7.58c4.41-1.27 6.73-3.21 15.54-3.21 10.5 0 21.27 9.69 35.71 11.13 3.48 0.36 5.76 0.28 7.76-0.34 0.73 1.65 1.57 2.21 2.62 3.06l-29.38 73.22h3.8l25.92-65.32v65.32h3.19v-67.18l25.21 67.18h4.87l-27.14-73.56c2.38-1.38 3.16-3.59 3.16-6.26 0-4.27-2.68-8.29-8.18-8.29z" fill="#FEFFFE"/>
  <path d="m112.7 55.68 1.21-2.1h12.1l2.03 2.82v26.31l-0.78 1.2h-12.72l-0.89-1.2-0.95-27.03z" fill="#2B2A29"/>
  <path d="m120.8 31.95c1.94 5.24 6.26 9.55 5.47 14.66-0.45 2.82-1.87 4.41-4.25 5.78v0.42h-3.25v-1.7c-3.53-2.16-4.51-6.2-2.08-11.19 1.48-2.81 3.31-5.08 4.11-7.97z" fill="#2B2A29"/>
  <path d="m115.3 53.58h9.94l0.79 1.73h-11.47l0.74-1.73z" fill="#B65A3E"/>
  <path d="m115.6 84.42h10.5v2.01h-10.5v-2.01z" fill="#B65A3E"/>
  <path d="m117.9 87.11-2.79 83.35h11.22l-2.54-83.49-5.89 0.14z" fill="#2B2A29"/>
  <path d="m116.7 172.2h8.8l0.28 2.21h-10.17l1.09-2.21z" fill="#B65A3E"/>
  <path d="m116.2 189.4h9.46l0.79 1.85h-10.79l0.54-1.85z" fill="#B65A3E"/>
  <path d="m113.2 200.7c0-4.88 3.51-6.88 5.35-6.88h3.61c3.24 0 6.65 3.41 6.65 7.97v17.06l13.39 4.69h-42.13l13.07-4.98 0.06-17.86z" fill="#2B2A29"/>
  <path d="m95.05 224h53.05c2.96 0 5.03 1.89 5.31 5.21h-64.2c0-2.81 2.08-5.21 5.84-5.21z" fill="#2B2A29"/>
  <path d="m85.34 231.5h70.78c3.52 0 5.59 2.96 5.93 8.01h-80.78c-0.34-4.56 1.22-8.01 4.07-8.01z" fill="#2B2A29"/>
  <path d="m114 179.8c0-5.45 3.06-6.93 4.73-6.93h4.17c2.79 0 5.07 4.21 5.07 7.59 0 4.61-2.79 7.23-4.35 7.23h-4.89c-2.53 0-4.73-3.62-4.73-7.89z" fill="#2B2A29"/>
  <path d="m45.13 78.4c0-4.08 2.58-5.97 5.18-5.97 3.75 0 5.59 2.53 5.59 5.65 0 3.13-2.58 6.2-5.88 6.2-2.79 0-4.89-3.12-4.89-5.88z" fill="#2B2A29"/>
  <path d="m186.2 78.4c0-3.72 2.64-6 5.49-6 3.52 0 5.64 2.53 5.64 5.65 0 3.13-2.52 5.66-5.7 5.66-2.85 0-5.43-2.47-5.43-5.31z" fill="#2B2A29"/>
  <path d="m130.6 63.12c7.65-2.21 17.27-2.33 25.91 1.51 8.92 4.1 17.84 11.51 30.13 12.02l0.39 1.89-0.39 2.87c-8.98 1.53-20.75-6.79-32.85-9.66-7.84-1.99-15.32-1.59-23.19 2.2v-10.83z" fill="#2B2A29"/>
  <path d="m110.8 63.52c-7.82-2.27-18.65-2.27-28.05 3.12-8.81 5.22-16.04 9.5-26.71 9.5l-1.09 2.17 0.23 3.02c10.83 0.91 18.76-3.87 27.63-7.38 6.4-2.43 10.97-3.91 18.03-3 3.81 0.51 6.29 1.6 10.1 3.03l-0.14-10.46z" fill="#2B2A29"/>
  <path d="m174 232.2h28.24c2.02 0 3.69 1.43 3.35 3.64 1.89 0 1.89 1.26 1.89 3.68h-38.32v-2.11l1.84-1.8c-0.45-1.84 0.28-3.41 3-3.41z" fill="#B65A3E"/>
  <path d="m188.3 198.2 1.53-2.07c1.1-0.9 2.37-0.67 4.44 0.17l9.03 4.44c2.48 1.31 2.76 2.63 2.37 4.62l-1.16 1.98-2.29 0.74 0.79 1.74c0.45 1.11-0.71 2.26-1.93 2.82l-0.84 0.45 2.06 0.99c2.69 0.39 3.85 3.06 7.54 4.86 1.27-0.4 2.78-0.74 3.77 0.8l0.73 1.2 0.94-0.17 25.35 12.3c2.33 0.51 3.49 2.1 3.83 4.09 0.17 1.7-1.1 3.02-2.37 2.9-1.16-0.05-2.15-0.45-2.76-1.2l-1.27 0.23-25.83-13.28-1.1 0.22-1.78-2.51c-1.72-1.14-5.25-1.53-7.37-2.84l-1.78 1.31-2.08-0.88 0.45 1.74c0.11 1.32-1.21 2.11-2.48 1.49l-15.44-0.82-2.48-2.41c-0.73-1.49 0.31-2.85 1.58-3.97 0.68-0.56 1.72-0.73 2.51-0.51l-0.39-0.9c-0.94-1.59 0.33-3.02 1.9-3.36l4.36-10.03-0.69-1.26c-0.34-0.91-0.11-2.11 0.86-2.88z" fill="#2B2A29"/>
  <path d="m187.2 202.2 15.57 7.25-1.04 0.99-15.23-7.33 0.7-0.91z" fill="#B65A3E"/>
  <path d="m182.8 214.1 14.45 7.03-0.55 1.03-15-7.36 1.1-0.7z" fill="#B65A3E"/>
</svg>