<svg xmlns="http://www.w3.org/2000/svg" width="250" height="250" fill="none" viewBox="0 0 250 250">
<!-- SVG created with Arrow, by QuiverAI (https://quiver.ai) -->
  <path d="m243.9 226.1-104.2-0.08c-2 4.44-8.27 7-15.7 7s-13.1-2.67-14.76-7.07l-101.4 0.15c-1.45 0-2.4-1.28-1.8-2.84l26.14-70.78c0.7-1.95 1.26-2.27 2.73-2.27h1.22l9.8-10.7 10.45-0.49 68.23-8.24 79.32 9.27 9.12 10.62h1.58c1.75 0 2.29 0.8 2.84 2.27l26.42 71.06c0.75 1.8 0.86 2.1 0.01 2.1z" fill="url(#paint0_linear_132_3101)"/>
  <path d="m11.71 221.7 26.25-69.81 8.23-11.49 9.92-0.1 68.42-8.59 78.99 8.89 9.67 11.14 24.63 69.86-99.36-0.4c-1.73 4.66-6.78 7.18-14.08 7.18-6.67 0-11.54-2.3-13.99-6.83l-98.68 0.15z" fill="#143366"/>
  <path d="m12.96 220.6 26.02-68.51 7.39-10.23 10.71-0.37 67.61-8.7 78.38 8.21 8.71 11.6 24.18 67.87-97-0.68c-2.71 0.37-4.25 5.97-14.33 5.97-9.16 0-11.02-5.05-13.9-6l-97.77 0.84z" fill="#FEFFFE"/>
  <path d="m123.8 216.2-1.34-1.53 0.2-83.44h2.5v83.44l-1.36 1.53z" fill="#143366"/>
  <path d="m124.5 214.6c7.22-8.33 16.72-14.56 35.43-15.06 16.22-0.47 24.16 4.59 42.78 6.36 8.75 1.28 15.08 1.48 23.03 0.21l-22.06-64.96 1.97 0.17 26.88 68.83 0.97 4.65-9.04-7.13c-8.24 0.98-14.48 0.69-24.33-1.07-16.43-2.77-23.87-6.35-38.1-5.88-15.94 0.2-24.99 5.26-35.45 14.81l-2.08-0.93z" fill="#143366"/>
  <path d="m123.8 214.5c-6.63-8.23-16.89-14.46-35.11-14.96-15.74-0.84-24.78 3.53-38.51 5.78-9.14 1.76-15.87 1.86-26.13 0.79l22.16-66.17-2.17 0.66-27.87 70.01-1.67 4.09 8.75-7.23c8.94 0.98 16.28 0.78 24.82-0.69 14.72-2.46 22.06-5.57 37.39-5.08 15.34 0.49 24.79 4.28 36.35 13.83l1.99-1.03z" fill="#143366"/>
  <path d="m217.1 211.9c-15.74-0.29-25.29-3.24-38.13-5.7-13.14-2.65-28.57-3.52-45.7 6.92 11.84-10.34 26.66-10.83 41.38-8.37 13.23 2.46 25.18 5.97 42.45 7.15z" fill="#143366"/>
  <path d="m200.9 216.5c-14.63-1.76-22.78-4.72-33.73-5.46-10.95-0.97-19.99 1.17-32.14 6.52 10.95-7.66 21-8.63 32.75-7.2 10.15 1.37 18.49 4.18 33.12 6.14z" fill="#143366"/>
  <path d="m31.86 211.9c15.74-0.29 25.29-3.24 38.12-5.7 13.14-2.65 27.96-2.94 45.1 6.92-11.85-9.37-26.67-10.44-41.39-8.37-13.53 2.34-23.68 5.97-41.83 7.15z" fill="#143366"/>
  <path d="m48.88 216.1c13.83-0.98 21.97-3.93 32.43-5.26 10.95-1.47 18.9 0.29 31.34 5.84-11.45-8-23.4-8.2-34.54-6.53-10.36 1.96-18.3 4.58-29.23 5.95z" fill="#143366"/>
  <path d="m37.82 197.1 0.79-2.06c17.61-1.47 27.66-4.22 38.71-5.01 12.45-1.27 23.5 0.49 37.83 7.07v1.57c-13.04-5.98-24.89-8.34-38.42-6.57-10.95 1.76-19.5 3.92-38.91 5z" fill="#143366"/>
  <path d="m38.61 190.3 0.59-1.86c16.92-1.37 26.67-4.03 37.33-5.1 12.05-1.28 22.6-0.2 38.54 5.59v1.77c-14.33-5.8-25.69-6.09-38.34-4.52-10.65 1.77-17.79 3.34-38.12 4.12z" fill="#143366"/>
  <path d="m40.57 183.9 0.59-2.06c16.34-1.76 25.29-4.12 35.45-5.39 11.35-1.47 22.4-0.49 38.64 5.3v1.86c-14.73-5.98-25.98-6.47-38.23-4.81-10.36 1.48-17.9 3.54-36.45 5.1z" fill="#143366"/>
  <path d="m43.53 177.5 0.79-2.06c16.43-1.67 24.87-4.22 34.73-5.2 11.15-1.47 19.99-0.98 36.62 5.29v2.07c-14.03-6.09-24.58-6.58-37.22-4.81-10.15 1.47-16.88 3.53-34.92 4.71z" fill="#143366"/>
  <path d="m133.6 176c11.35-5.45 20.59-6.82 35.12-6.13l3.66 21.44c-14.13-2.06-24.39-0.29-38.22 5.89l-0.56-21.2z" fill="#143366"/>
  <path d="m173.2 170.4c13.84 2.46 19.08 4.22 32.41 5.49l6.33 21.93c-9.75-0.68-19.4-4.11-34.83-6.07l-3.91-21.35z" fill="url(#paint1_linear_132_3101)"/>
  <path d="m150.6 156.2c0 5.98 9.75 9.13 20.1 9.13 10.36 0 19.91-4.33 19.91-9.13v-10.04h-40.01v10.04z" fill="url(#paint2_linear_132_3101)"/>
  <path d="m150.2 146.2c0 5.64 9.55 8.9 20.39 8.9 10.85 0 20-4.74 20-8.9v-8.95h-40.39v8.95z" fill="url(#paint3_linear_132_3101)"/>
  <path d="m150.2 137.5c0 5.65 9.55 8.61 20.39 8.61 10.85 0 20-4.44 20-8.61v-8.94h-40.39v8.94z" fill="url(#paint4_linear_132_3101)"/>
  <path d="m150.2 128.6c0 5.15 9.55 8.01 20.39 8.01 10.85 0 20-4.44 20-8.01v-8.35h-40.39v8.35z" fill="url(#paint5_linear_132_3101)"/>
  <path d="m150.2 119.6c0 5.15 9.55 8 20.39 8 10.85 0 20-4.44 20-8v-8.35h-40.39v8.35z" fill="url(#paint6_linear_132_3101)"/>
  <path d="m150.2 111.3c0 5.15 9.55 8 20.39 8 10.85 0 20-4.44 20-8v-7.75h-40.39v7.75z" fill="url(#paint7_linear_132_3101)"/>
  <path d="m150.2 102.9c0 5.15 9.55 8 20.39 8 10.85 0 20-4.44 20-8v-7.75h-40.39v7.75z" fill="url(#paint8_linear_132_3101)"/>
  <path d="m150.2 94.6c0 5.15 9.55 8.01 20.39 8.01 10.85 0 20-4.44 20-8.01v-8.34h-40.39v8.34z" fill="url(#paint9_linear_132_3101)"/>
  <path d="m150.2 86.26c0 5.15 9.55 8 20.39 8 10.85 0 20-4.44 20-8v-8.34h-40.39v8.34z" fill="url(#paint10_linear_132_3101)"/>
  <path d="m190.6 74.38c0-5.75-9.15-9-20-9-10.84 0-20.39 3.25-20.39 9v2.85c0 5.88 9.55 8.73 20.39 8.73 10.85 0 20-3.93 20-8.73v-2.85z" fill="url(#paint11_linear_132_3101)"/>
  <path d="m170.6 82.03c10.42 0 16.79-3.76 16.79-8.34 0-3.83-7.54-5.99-16.79-5.99-9.24 0-16.38 2.16-16.38 5.99 0 4.58 6.48 8.34 16.38 8.34z" fill="#F1C22D"/>
  <path d="m154.9 73.89c1.08-3.93 7.91-6.78 16.06-6.78 7.84 0 14.17 2.46 16.04 5.99-2.86-2.95-8.4-4.52-16.04-4.22-7.44 0.29-13.2 2.06-16.06 5.01z" fill="#D19A05"/>
  <path d="m104.9 157.1c0 5.64 9.75 8.5 19.71 8.5 10.35 0 19.9-4.44 19.9-8.5v-9.65h-39.61v9.65z" fill="url(#paint12_linear_132_3101)"/>
  <path d="m104.9 147.6c0 5.84 9.75 8.89 19.71 8.89 10.35 0 19.9-4.44 19.9-8.89v-8.94h-39.61v8.94z" fill="url(#paint13_linear_132_3101)"/>
  <path d="m104.9 138.7c0 5.74 9.75 8.6 19.71 8.6 10.35 0 19.9-4.44 19.9-8.6v-7.75h-39.61v7.75z" fill="url(#paint14_linear_132_3101)"/>
  <path d="m104.9 129.8c0 5.74 9.75 8.6 19.71 8.6 10.35 0 19.9-4.44 19.9-8.6v-7.75h-39.61v7.75z" fill="url(#paint15_linear_132_3101)"/>
  <path d="m104.9 121.4c0 5.74 9.75 8.6 19.71 8.6 10.35 0 19.9-4.44 19.9-8.6v-7.75h-39.61v7.75z" fill="url(#paint16_linear_132_3101)"/>
  <path d="m104.9 103.8v8.65c0 5.74 9.75 8.2 19.71 8.2 10.35 0 19.9-4.44 19.9-8.2v-8.65h-39.61z" fill="url(#paint17_linear_132_3101)"/>
  <path d="m144.5 103.1c0-5.75-9.55-8.45-19.9-8.45-10.36 0-19.71 2.7-19.71 8.45v3.25c0 5.15 9.75 8.01 19.71 8.01 10.35 0 19.9-4.15 19.9-8.01v-3.25z" fill="url(#paint18_linear_132_3101)"/>
  <path d="m124.6 110.6c9.85 0 17.29-3.06 17.29-7.6 0-4.13-7.44-6.19-17.29-6.19-9.45 0-16.69 2.06-16.69 6.19 0 4.54 7.24 7.6 16.69 7.6z" fill="#F1C22D"/>
  <path d="m108.5 102.9c1.08-3.93 7.81-6.58 16.25-6.58 8.14 0 14.18 2.16 16.15 5.5-2.76-2.95-8.3-4.23-16.15-4.03-7.94 0.2-13.49 2.16-16.25 5.11z" fill="#D19A05"/>
  <path d="m58.83 156.8c0 5.74 9.55 8.79 19.9 8.79 10.36 0 19.91-4.14 19.91-8.79v-8.94h-39.81v8.94z" fill="url(#paint19_linear_132_3101)"/>
  <path d="m58.83 148.5c0 5.64 9.55 8.6 19.9 8.6 10.36 0 19.91-4.44 19.91-8.6v-8.94h-39.81v8.94z" fill="url(#paint20_linear_132_3101)"/>
  <path d="m58.83 126.6v8.65c0 5.74 9.55 8.59 19.9 8.59 10.36 0 19.91-4.44 19.91-8.59v-8.65h-39.81z" fill="url(#paint21_linear_132_3101)"/>
  <path d="m98.64 126.6c0-5.75-9.55-8.45-19.91-8.45-10.35 0-19.9 2.7-19.9 8.45v2.85c0 5.15 9.55 8 19.9 8 10.36 0 19.91-4.15 19.91-8v-2.85z" fill="url(#paint22_linear_132_3101)"/>
  <path d="m78.73 133.7c9.45 0 16.89-3.05 16.89-7.19 0-3.83-7.44-5.89-16.89-5.89s-16.69 2.06-16.69 5.89c0 4.14 7.24 7.19 16.69 7.19z" fill="#F1C22D"/>
  <path d="m62.44 126.4c1.18-3.83 7.82-6.48 16.27-6.48 8.14 0 14.47 2.16 16.44 5.7-2.86-2.95-8.6-4.52-16.44-4.23-7.95 0.3-13.4 2.06-16.27 5.01z" fill="#D19A05"/>
  <path d="m58.83 104 48.31-48.9 17.62 17.59 38.88-38.88-8.95-9.45 35.09-8.85-8.75 36.18-8.55-9.04-47.72 47.15-17.82-17.82-40.47 40.57-7.64-8.55z" fill="url(#paint23_linear_132_3101)"/>
  <defs>
    <linearGradient id="paint0_linear_132_3101" x1="125.1" x2="125.1" y1="130.7" y2="233" gradientUnits="userSpaceOnUse">
      <stop stop-color="#164171" offset="0"/>
      <stop stop-color="#D82B2B" offset="1"/>
    </linearGradient>
    <linearGradient id="paint1_linear_132_3101" x1="192.5" x2="192.5" y1="170.3" y2="197.8" gradientUnits="userSpaceOnUse">
      <stop stop-color="#D82B2B" offset="0"/>
      <stop stop-color="#D82B2B" offset="1"/>
    </linearGradient>
    <linearGradient id="paint2_linear_132_3101" x1="170.6" x2="170.6" y1="146.2" y2="165.3" gradientUnits="userSpaceOnUse">
      <stop stop-color="#F0C22D" offset="0"/>
      <stop stop-color="#B78200" offset="1"/>
    </linearGradient>
    <linearGradient id="paint3_linear_132_3101" x1="170.4" x2="170.4" y1="137.2" y2="155.1" gradientUnits="userSpaceOnUse">
      <stop stop-color="#F0C22D" offset="0"/>
      <stop stop-color="#B78200" offset="1"/>
    </linearGradient>
    <linearGradient id="paint4_linear_132_3101" x1="170.4" x2="170.4" y1="128.6" y2="146.1" gradientUnits="userSpaceOnUse">
      <stop stop-color="#F0C22D" offset="0"/>
      <stop stop-color="#B78200" offset="1"/>
    </linearGradient>
    <linearGradient id="paint5_linear_132_3101" x1="170.4" x2="170.4" y1="120.2" y2="136.6" gradientUnits="userSpaceOnUse">
      <stop stop-color="#F0C22D" offset="0"/>
      <stop stop-color="#B78200" offset="1"/>
    </linearGradient>
    <linearGradient id="paint6_linear_132_3101" x1="170.4" x2="170.4" y1="111.3" y2="127.6" gradientUnits="userSpaceOnUse">
      <stop stop-color="#F0C22D" offset="0"/>
      <stop stop-color="#B78200" offset="1"/>
    </linearGradient>
    <linearGradient id="paint7_linear_132_3101" x1="170.4" x2="170.4" y1="103.5" y2="119.3" gradientUnits="userSpaceOnUse">
      <stop stop-color="#F0C22D" offset="0"/>
      <stop stop-color="#B78200" offset="1"/>
    </linearGradient>
    <linearGradient id="paint8_linear_132_3101" x1="170.4" x2="170.4" y1="95.18" y2="110.9" gradientUnits="userSpaceOnUse">
      <stop stop-color="#F0C22D" offset="0"/>
      <stop stop-color="#B78200" offset="1"/>
    </linearGradient>
    <linearGradient id="paint9_linear_132_3101" x1="170.4" x2="170.4" y1="86.25" y2="102.6" gradientUnits="userSpaceOnUse">
      <stop stop-color="#F0C22D" offset="0"/>
      <stop stop-color="#B78200" offset="1"/>
    </linearGradient>
    <linearGradient id="paint10_linear_132_3101" x1="170.4" x2="170.4" y1="74.38" y2="94.26" gradientUnits="userSpaceOnUse">
      <stop stop-color="#F0C22D" offset="0"/>
      <stop stop-color="#B78200" offset="1"/>
    </linearGradient>
    <linearGradient id="paint11_linear_132_3101" x1="170.4" x2="170.4" y1="65.38" y2="85.96" gradientUnits="userSpaceOnUse">
      <stop stop-color="#F0C22D" offset="0"/>
      <stop stop-color="#B78200" offset="1"/>
    </linearGradient>
    <linearGradient id="paint12_linear_132_3101" x1="124.7" x2="124.7" y1="147.4" y2="165.6" gradientUnits="userSpaceOnUse">
      <stop stop-color="#F0C22D" offset="0"/>
      <stop stop-color="#B78200" offset="1"/>
    </linearGradient>
    <linearGradient id="paint13_linear_132_3101" x1="124.7" x2="124.7" y1="138.7" y2="156.5" gradientUnits="userSpaceOnUse">
      <stop stop-color="#F0C22D" offset="0"/>
      <stop stop-color="#B78200" offset="1"/>
    </linearGradient>
    <linearGradient id="paint14_linear_132_3101" x1="124.7" x2="124.7" y1="130.9" y2="147.3" gradientUnits="userSpaceOnUse">
      <stop stop-color="#F0C22D" offset="0"/>
      <stop stop-color="#B78200" offset="1"/>
    </linearGradient>
    <linearGradient id="paint15_linear_132_3101" x1="124.7" x2="124.7" y1="122" y2="138.3" gradientUnits="userSpaceOnUse">
      <stop stop-color="#F0C22D" offset="0"/>
      <stop stop-color="#B78200" offset="1"/>
    </linearGradient>
    <linearGradient id="paint16_linear_132_3101" x1="124.7" x2="124.7" y1="113.7" y2="130" gradientUnits="userSpaceOnUse">
      <stop stop-color="#F0C22D" offset="0"/>
      <stop stop-color="#B78200" offset="1"/>
    </linearGradient>
    <linearGradient id="paint17_linear_132_3101" x1="124.7" x2="124.7" y1="103.8" y2="120.7" gradientUnits="userSpaceOnUse">
      <stop stop-color="#F0C22D" offset="0"/>
      <stop stop-color="#B78200" offset="1"/>
    </linearGradient>
    <linearGradient id="paint18_linear_132_3101" x1="124.7" x2="124.7" y1="94.69" y2="114.4" gradientUnits="userSpaceOnUse">
      <stop stop-color="#F0C22D" offset="0"/>
      <stop stop-color="#B78200" offset="1"/>
    </linearGradient>
    <linearGradient id="paint19_linear_132_3101" x1="78.74" x2="78.74" y1="147.9" y2="165.6" gradientUnits="userSpaceOnUse">
      <stop stop-color="#F0C22D" offset="0"/>
      <stop stop-color="#B78200" offset="1"/>
    </linearGradient>
    <linearGradient id="paint20_linear_132_3101" x1="78.74" x2="78.74" y1="139.5" y2="157.1" gradientUnits="userSpaceOnUse">
      <stop stop-color="#F0C22D" offset="0"/>
      <stop stop-color="#B78200" offset="1"/>
    </linearGradient>
    <linearGradient id="paint21_linear_132_3101" x1="78.74" x2="78.74" y1="126.6" y2="143.9" gradientUnits="userSpaceOnUse">
      <stop stop-color="#F0C22D" offset="0"/>
      <stop stop-color="#B78200" offset="1"/>
    </linearGradient>
    <linearGradient id="paint22_linear_132_3101" x1="78.74" x2="78.74" y1="118.2" y2="137.5" gradientUnits="userSpaceOnUse">
      <stop stop-color="#F0C22D" offset="0"/>
      <stop stop-color="#B78200" offset="1"/>
    </linearGradient>
    <linearGradient id="paint23_linear_132_3101" x1="124.3" x2="124.3" y1="15.53" y2="112.6" gradientUnits="userSpaceOnUse">
      <stop stop-color="#D82B2B" offset="0"/>
      <stop stop-color="#D82B2B" offset="1"/>
    </linearGradient>
  </defs>
</svg>