<svg xmlns="http://www.w3.org/2000/svg" width="250" height="250" fill="none" viewBox="0 0 250 250">
<!-- SVG created with Arrow, by QuiverAI (https://quiver.ai) -->
  <path d="m124.8 244.3c12.09 0 20.8-10.42 20.4-21.95-0.42-11.9-10.13-20.63-21.31-20.3-11.7 0.38-19.71 10.19-19.35 21.36 0.38 11.3 9.23 20.89 20.26 20.89z" fill="#6DB0EC"/>
  <path d="m124.8 244.3c6.59 0 13.91-4.41 13.91-5.93 0-4.6-1.88-7.32-7.74-8.35l-3-0.68h-5.5l-4.94 0.88c-4.94 0.89-7.08 3.51-7.08 8.41 0 1.71 6.67 5.67 14.35 5.67z" fill="#007DB6"/>
  <path d="m124.1 206.8c-6.3 0-6.73 5.39-6.73 6.52v5.65h14.84v-5.65c-0.01-2.16-1.31-6.52-8.11-6.52z" fill="#007099"/>
  <path d="m128.3 227.1v-3.63h-7.51v3.63c0 1.51 5.05 3.71 7.51 0z" fill="#00B1A9"/>
  <path d="m131.4 217.4c-1.1 0-0.69-1.23-0.69-2.21 0-2.05-0.84-3.45-2.18-3.17-2.32 0.51-3.15 0.75-4.34 0.75-1.2 0-2.03-0.24-4.35-0.75-1.33-0.31-1.59 1.12-1.59 3.17 0 0.98 0.41 2.36-0.96 2.36-1.49 0-1.08 4.51 1.56 4.51 0.64 2.87 2.94 5.02 5.36 5.02 2.62 0 4.76-2.26 5.47-5.02 2.87 0 3.46-4.66 1.72-4.66z" fill="#00D1B2"/>
  <path d="m194 216c11.08 0 20.48-9.96 20.48-20.68 0-10.95-9.4-20.35-19.82-20.06-10.95 0.34-20.97 9.51-20.97 20.95 0 10.64 8.66 19.79 20.31 19.79z" fill="#6DB0EC"/>
  <path d="m181.5 210.3c1.41-5.95 3.09-5.55 12.33-7.02l2.26-0.16c7.65 0.76 10.11 2.19 11.12 8.81-2.76 2.48-7.07 4.23-13.38 3.93-5.85-0.29-9.34-2.47-12.33-5.56z" fill="#0092BA"/>
  <path d="m193.9 177.2c-3.95 0-5.06 3.65-4.16 5.8-2.4 0.75-3.33 4.81-3.64 9.02l7.8 4.45 7.79-5.33c-0.3-3.38-0.99-6.49-3.55-7.92 0.77-2.37-0.82-6.02-4.24-6.02z" fill="#007099"/>
  <path d="m190 202.2-1.26 6.86 5.09-1.78 5.08 1.78-1.83-6.86h-7.08z" fill="#D4F2F6"/>
  <path d="m198.2 187.5c-1.93 3.8-6.1 5.38-10.4 5.63-1.74 0.1-1.65 4.58 1.93 4.79 0.77 2.56 2.55 5.07 4.68 5.07 2.36 0 4.29-2.81 5.13-5.32 2.25 0 3.23-3.96 2.66-4.59-1.44-0.98-3.01-3.19-4-5.58z" fill="#00D1B2"/>
  <path d="m223.7 145.8c12.65 0 20.91-10.55 20.91-20.41 0-11.34-9.5-20.49-20.45-20.49-12 0-21.91 9.4-21.91 20.84 0 10.31 8.4 20.06 21.45 20.06z" fill="#6DB0EC"/>
  <path d="m210.4 139.7c0.74-4 2.04-7 7.09-7.62l3.48-1.29h6.09l5.09 1.6c3.85 1.24 5.09 3.8 5.61 7.11-3.53 4.21-8.58 6.3-14.18 6.1-5.3-0.21-10.1-2.57-13.18-5.9z" fill="#007DB6"/>
  <path d="m232.8 117.9c-2.46-2.67-1.84-6.88-6.59-7.29-1.54-0.14-1.39-0.49-3.47-0.49-5.5 0-6.14 5-8.01 7.99-2.47 3-2.93 8.34 1.47 9.62 1.87 0.57 2.94 1.08 4.01 2.1h7.65c1.49-1.48 2.22-1.38 4.3-2.72 3.43-1.98 3.43-6.19 0.64-9.21z" fill="#007099"/>
  <path d="m222.1 129.3v2.81l1.78 4.26 1.34 1.52 3.49-7.09-0.11-2.77-6.5 1.27z" fill="#00B1A9"/>
  <path d="m230.6 120.1c-1.49-0.52-1.55-1.52-2.17-4.09-0.46-1.83-1.39-1.26-1.7-0.53-1.12 2.32-5.93 5.23-10.43 4.82-1.24-0.11-1.44 5.39 1.66 7.08 1.24 1.13 2.41 2.21 4.66 2.21 2.46 0 4.63-1.89 5.76-3.98 2.86 0.47 4.5-4.72 2.22-5.51z" fill="#00D1B2"/>
  <path d="m193.7 75.18c12.08 0 20.79-10.42 20.39-21.95-0.42-11.9-10.13-20.64-21.31-20.3-11.69 0.38-19.71 10.19-19.35 21.36 0.38 11.31 9.23 20.89 20.27 20.89z" fill="#6DB0EC"/>
  <path d="m181.5 70.04c0.93-3.65 3.04-6.07 6.84-6.54l5.39-0.88 5.5 0.62c5.09 0.57 7.8 2.55 9.14 7.15-3.42 3.26-8.23 4.84-13.57 4.73-5.24-0.1-9.54-1.98-13.3-5.08z" fill="#0092BA"/>
  <path d="m194 36.63c-4.07 0-5.05 3.54-4.28 6-2.76 1.13-3.33 4.61-3.95 9.01l8.11 3.21 7.84-3.79c0-3.96-0.56-7.55-3.6-8.88 0.77-2.37-0.82-5.55-4.12-5.55z" fill="#007099"/>
  <path d="m190.3 60.52-0.84 6.5 4.49-2.41 4.75 2.41-1.13-6.81-7.27 0.31z" fill="#00B1A9"/>
  <path d="m196.2 45.92c-0.93 2.76-5.42 5.02-10.06 5.32-1.49 0.1-0.31 4.91 2.78 5.06 0.93 2.91 2.76 4.79 4.92 4.79 2.26 0 4.14-2.47 5.07-5.03 2.04-0.15 3.24-3.63 2.78-4.52-2.15-0.81-4.24-3.06-5.49-5.62z" fill="#00D1B2"/>
  <path d="m54.87 215.1c12.08 0 20.79-10.42 20.39-21.95-0.42-11.9-10.13-20.64-21.3-20.3-11.7 0.38-19.71 10.19-19.35 21.36 0.37 11.31 9.22 20.89 20.26 20.89z" fill="#6DB0EC"/>
  <path d="m44.61 204v-11.87c0-7.36 3.42-11.96 10.11-11.96 7.14 0 10.4 5.6 10.4 11.81v11.87l-3.8 2.61-11.34-0.15-5.37-2.31z" fill="#00629A"/>
  <path d="m41.35 209.3c0.74-4.5 2.94-6.03 9.26-6.96l4.21-0.47 3.43 0.47c5.44 0.83 8.26 1.3 9.69 7.46-3.01 3.32-7.36 5.53-13.32 5.37-5.8-0.14-10.01-2.35-13.27-5.87z" fill="#00D1B2"/>
  <path d="m54.61 207.9-4.11-6.15 0.83-2.76h6.65l0.73 2.46-4.1 6.45z" fill="#00B1A9"/>
  <path d="m49.11 187.1c-0.41 2.66-2.34 2.56-2.39 3.59-0.21 2.46 2.18 5.94 4.55 7.28 0.83 1.23 1.45 1.64 3.33 1.64 2.08 0 2.91-0.98 4.35-2.82 1.98-0.72 3.66-3.99 3.66-6.75-4.75-0.31-8.85-1.24-13.5-2.94z" fill="#00D1B2"/>
  <path d="m25.41 145.8c12.08 0 20.79-10.42 20.39-21.95-0.42-11.9-10.13-20.63-21.31-20.29-11.69 0.38-19.71 10.19-19.35 21.36 0.38 11.3 9.23 20.88 20.27 20.88z" fill="#6DB0EC"/>
  <path d="m11.34 139.6c1.24-4.65 2.57-6.43 7.47-7.51l3.42-1.34h6.39l4.36 1.23c4.9 1.39 6.63 2.72 7.86 7.12-3.58 4.4-8.03 6.66-15.12 6.51-6.6-0.16-10.3-2.2-14.38-6.01z" fill="#0092BA"/>
  <path d="m25.72 110.1c-5.5 0-6.57 4.5-6.68 9l-1.43 0.72v2.47l1.12 1.43 2.36 4.91c1.02 1.13 1.95 2.06 4.32 2.06 2.26 0 3.6-1.24 5.03-3.17l2.47-5.7 0.92-1.13v-1.34l-1.54-1.53c0-4.65-0.36-7.72-6.57-7.72z" fill="#00D1B2"/>
  <path d="m20.33 130.8 4.05 2.06 1.54 1.83-1.73 2.46 0.83 7.95h-0.73l-3.96-14.3z" fill="#007099"/>
  <path d="m31.77 130.8-3.75 1.97-1.98 1.92 1.63 2.26-1.12 8.15h1.02l4.2-14.3z" fill="#007099"/>
  <path d="m54.82 75.18c12.08 0 20.79-10.42 20.39-21.95-0.42-11.9-10.13-20.64-21.3-19.72-11.7 0.93-19.71 9.61-20.07 19.92-0.38 11.31 9.94 21.75 20.98 21.75z" fill="#6DB0EC"/>
  <path d="m39.82 68.62c0.92-4.55 2.46-6.09 7.36-7.22l4.21-0.98 4.84 0.21c6.05 0.41 9.8 1.49 11.58 8.25-3.1 3.85-8.8 6.41-14.4 6.21-5.75-0.21-9.7-2.47-13.59-6.47z" fill="#007DB6"/>
  <path d="m46.15 48.01c0-4.96 0.93-7.87 8.36-7.87 4.3 0 7.46 2.81 7.46 6.87v3.05l-1.83 2.86-13.68-1.63-0.31-3.28z" fill="#007099"/>
  <path d="m46.67 49.14c0 0.93-0.57 1.44-1.03 1.9-0.63 0.62 0.35 4.04 1.59 3.84 0.57 2.46 2 5.18 5.26 5.18h2.26c2.56 0 4.2-2.81 4.66-5.28 1.18 0.21 3.01-1.13 3.21-3.28 0.1-1.18-1.13-1.95-1.81-1.8-0.41-1.53-1.03-4.15-2.32-4.77-1.34 1.54-5.74 2.26-9.69 1.18-1.19-0.35-2.13 1.33-2.13 3.03z" fill="#00D1B2"/>
  <path d="m48.92 125.3c0-0.94 0.69-1.45 1.52-1.45 1.03 0 1.59 0.57 1.59 1.4s-0.72 1.29-1.55 1.29c-0.93 0-1.56-0.56-1.56-1.24z" fill="#D11B84"/>
  <path d="m55.52 125.3c0-0.93 0.72-1.39 1.6-1.39 0.93 0 1.5 0.62 1.5 1.34 0 0.83-0.68 1.35-1.61 1.35-0.93 0.01-1.49-0.55-1.49-1.3z" fill="#D11B84"/>
  <path d="m61.71 125.2c0-0.83 0.67-1.29 1.5-1.29 0.93 0 1.5 0.57 1.5 1.3 0 0.83-0.68 1.35-1.61 1.35-0.83 0-1.39-0.62-1.39-1.36z" fill="#D11B84"/>
  <path d="m185.5 125.1c0-0.93 0.73-1.39 1.56-1.39 0.93 0 1.5 0.62 1.5 1.35 0 0.83-0.68 1.34-1.61 1.34-0.93 0.01-1.45-0.56-1.45-1.3z" fill="#D11B84"/>
  <path d="m191.8 125.1c0-0.93 0.72-1.39 1.55-1.39 0.93 0 1.5 0.62 1.5 1.35 0 0.83-0.68 1.34-1.61 1.34-0.93 0.01-1.44-0.56-1.44-1.3z" fill="#D11B84"/>
  <path d="m197.2 125.1c0-0.93 0.67-1.39 1.5-1.39 0.93 0 1.5 0.62 1.5 1.35 0 0.83-0.68 1.34-1.61 1.34-0.83 0.01-1.39-0.56-1.39-1.3z" fill="#D11B84"/>
  <path d="m123.5 169.3v28.32" stroke="#D11B84" stroke-dasharray="0.1 6" stroke-linecap="round" stroke-linejoin="round" stroke-width="3"/>
  <path d="m168.5 170.1 8.06 8.5" stroke="#D11B84" stroke-dasharray="0.1 6" stroke-linecap="round" stroke-linejoin="round" stroke-width="3"/>
  <path d="m81.46 170.1-9.05 8.05" stroke="#D11B84" stroke-dasharray="0.1 6" stroke-linecap="round" stroke-linejoin="round" stroke-width="3"/>
  <path d="m176.6 72.12-19.41 19.41" stroke="#D11B84" stroke-dasharray="0.1 6" stroke-linecap="round" stroke-linejoin="round" stroke-width="3"/>
  <path d="m72.82 72.12 19.41 19.41" stroke="#D11B84" stroke-dasharray="0.1 6" stroke-linecap="round" stroke-linejoin="round" stroke-width="3"/>
  <path d="m61.88 160.5v4.16h125.8v-4.16h-125.8z" fill="#005D83"/>
  <path d="m66.92 160.5v-50.87h33.1v50.87h-33.1z" fill="#0092BA"/>
  <path d="m182.4 110.9-33.66-12.81v62.34h33.66v-49.53z" fill="#0092BA"/>
  <path d="m100 98.12v62.34h48.7v-76.12l-48.7 13.78z" fill="#00C6B8"/>
  <path d="m153.6 76.55-57.72 18.06v5.29l57.72-16.6v-6.75z" fill="#005D83"/>
  <path d="m115.1 58.8h18.83c1.88 0 2.14-2.67 2.14-3.6 0-8.11 11.04-12.41 11.04-26.56 0-12.92-10.58-22.73-22.38-22.73-12.45 0-22.37 10.31-22.37 22.47 0 11.75 10.52 18.1 10.52 25.69 0 2.06 0.15 4.73 2.22 4.73z" fill="#E12A88"/>
  <path d="m108.5 24.38c1.43-6.46 5.23-9.62 11.44-11.88" opacity=".5" stroke="#FBE1F0" stroke-linecap="round" stroke-width="3.25"/>
  <path d="m122.9 58.8-1.08-20.28c0-4.35-1.29-7.56-4.29-7.31-3 0.26-3.06 3.31-2.08 5.14 1.49 2.86 5.44 2.29 10.29 2.29 4.86 0 7.42-0.93 8.25-2.56 0.93-1.93-0.1-4.74-2.46-4.74-3.42 0-3.73 3.1-4.3 7.31l-0.57 20.16" opacity=".5" stroke="#FBE1F0" stroke-linecap="round" stroke-width="2.12"/>
  <path d="m115.7 58.8h17.5c0.97 0 1.28 0.62 1.28 1.34 0 0.57-0.51 1.19-1.03 1.19h-18c-0.73 0-1.04-0.62-1.04-1.24 0-0.78 0.46-1.29 1.29-1.29z" fill="#0092BA"/>
  <path d="m115.7 61.32h17.5c0.97 0 1.28 0.62 1.28 1.34 0 0.57-0.51 1.19-1.03 1.19h-18c-0.73 0-1.04-0.62-1.04-1.24 0-0.78 0.46-1.29 1.29-1.29z" fill="#007DB6"/>
  <path d="m115.7 63.84h17.5c0.97 0 1.28 0.62 1.28 1.34 0 0.57-0.51 1.19-1.03 1.19h-18c-0.73 0-1.04-0.62-1.04-1.24 0-0.78 0.46-1.29 1.29-1.29z" fill="#0092BA"/>
  <path d="m116.9 70.27h15.8c0.73 0 1.35-0.46 1.35-1.29s-0.57-1.29-1.3-1.29h-16.16c-1.08 0-1.86 0.41-1.86 1.34 0 0.73 0.73 1.24 2.17 1.24z" fill="#007DB6"/>
  <path d="m118.6 73.09c1.34 1.93 3.27 2.95 5.53 2.95 2.56 0 4.64-1.43 5.88-3.59l0.57-1.24h-12.49l0.51 1.88z" fill="#005D83"/>
  <path d="m113.7 137.8v22.7h22.22v-22.7h-26.86v-4.55h31.22v4.55h-26.58z" fill="#005D83"/>
  <path d="m113.7 137.8v22.7h9.39v-22.7h-9.39z" fill="#C0E8E6"/>
  <path d="m125.1 137.8v22.7h10.83v-22.7h-10.83z" fill="#C0E8E6"/>
  <path d="m125.1 118.4c6.3 0 8.46-5.6 8.46-8.92 0-6.16-4.95-8.87-8.48-8.87-5.65 0-9.28 5.05-9.28 8.9 0.01 5.19 4.06 8.89 9.3 8.89z" fill="#E12A88"/>
  <path d="m124.5 104v5.8h4.65" stroke="#FBE1F0" stroke-linecap="round" stroke-linejoin="round" stroke-width="2.12"/>
  <path d="m73.13 117.8v7.65h8.22v-7.65h-8.22z" fill="#C0E8E6"/>
  <path d="m86.75 117.8v7.65h7.65v-7.65h-7.65z" fill="#C0E8E6"/>
  <path d="m73.13 130.6v7.65h8.22v-7.65h-8.22z" fill="#C0E8E6"/>
  <path d="m86.75 130.6v7.65h7.65v-7.65h-7.65z" fill="#C0E8E6"/>
  <path d="m73.13 143.7v7.65h6.76v-7.65h-6.76z" fill="#C0E8E6"/>
  <path d="m86.75 143.7v7.65h7.65v-7.65h-7.65z" fill="#C0E8E6"/>
  <path d="m155 117.8v7.65h7.65v-7.65h-7.65z" fill="#C0E8E6"/>
  <path d="m168.6 117.8v7.65h6.66v-7.65h-6.66z" fill="#C0E8E6"/>
  <path d="m155 130.6v7.65h7.65v-7.65h-7.65z" fill="#C0E8E6"/>
  <path d="m168.6 130.6v7.65h6.66v-7.65h-6.66z" fill="#C0E8E6"/>
  <path d="m155 143.7v7.65h7.65v-7.65h-7.65z" fill="#C0E8E6"/>
  <path d="m168.6 143.7v7.65h6.66v-7.65h-6.66z" fill="#C0E8E6"/>
</svg>