<svg xmlns="http://www.w3.org/2000/svg" width="200" height="200" fill="none" viewBox="0 0 200 200">
<!-- SVG created with Arrow, by QuiverAI (https://quiver.ai) -->
  <path d="m199.8 126.8-0.03-54.68-199.8 0.02v29.98l199.8 24.68z" fill="#A4D9C7"/>
  <path d="m200 55.72-9.05 1.14-2.73 0.07-7.4-0.65c-2.95-0.4-5.68-0.11-8.47 0.93l-16.1 6.06-3.19 1.05-11.26 0.05c-3.86-0.63-7.15-0.45-10.38 0.72l-17.67 6.98h86.06l0.19-16.35z" fill="#F0CC75"/>
  <path d="m199.8 33.39-4.58-7.1-4.23 0.28-0.2-5.11-2.63 5.5-2.63-2.37-5.83 0.1 6.57 4.13-3.23-0.1-4.86 5.3 8.57-1.88-3.9 2.85 0.67 5 6.29-6.98c2.28 7.46 1.49 17.27-1.03 24.65l2.11-0.8c1.7-7.95 0.56-17.82-1.01-24.14l5.53 3.64-0.39-2.97h4.78z" fill="#C89848"/>
  <path d="m149 49.8 5.16 2.66-2.45-4.62-4.17-1.07 6.43-2.66-3.35-1.37-2.69 1.07 3.22-3.43-2.22-0.38c-2.42 0.28-3.42 3.13-3.81 5.21l-2.22-2.18-5.26 0.69 4.1 2.56-2.48 0.78-1.11 3.03v2.56l4.3-4.52 2.59 0.59c-2.24 2.56-2.88 4.93-2.14 8.26l4.2-7.87c3.8 5.11 5.54 9.7 5.64 15.7l1.13-0.59c-0.26-4.63-2.16-9.41-4.87-14.42z" fill="#C89848"/>
  <path d="m0 69.14 5.19 2.95 0.29 4.63 1.46 9.79 6.67-5.1-4.55 8.61 7.19-2.46 4.87 1.18-6.1 5.87 2.95 1.3c7.77-17.92 18.72-34.2 29.1-42.23l0.06-0.87-2.37 0.91c-9.84 4.04-23.69 25.39-26.79 41.37l-4.96-1.98-1.87-4.18-2.95-1.17-2.95-7.75-2.02 4.37-3.22-7.17v-8.07z" fill="#C89848"/>
  <path d="m0 33.39 5.26-4.08v-3.13l12.51-4.14c-8.79 16.67-14.75 30.61-17.77 46.9v8.27l3.22 7.17 1.87-8.71v-3.34c2.08-13.92 4.02-25.17 13.37-49.9l0.59-0.19 2.07 12.95 3.33-1.27-2.75 4.79 3.23 2.46-1.36 2.94 0.78 8.6c3.43-2.46 5.7-5.99 7.26-9.97l2.45 1.76 3.82-0.69-3.63 2.27 8.67 2.55-7.19-0.3-8.11 5.3-3.46 8.49 5.89-3.03 1.07-2.75 0.78 1.77 5.88-3.03-0.68 1.47 7.55-2.26 2.46-0.59-0.49 10.43-1.17 1.88 2.46 0.78-1.88 2.94-0.1 7.28c7.59-4.14 9.79-10.74 6.36-19.84l3.92 4.34 0.97-3.45 8.78 12.95c2.26-8.3 0.39-14.96-9.46-19.14l6.28 0.98 1.97-2.36 1.26 2.75 8.46 0.88c-5.36-10.01-13.26-11.97-23.86-6.28 2.5-6.67 1.29-12.85-5.9-17.75-4.76-7.85-10.16-12.18-19.04-12.67l5.16-0.88 4.96-0.09-0.68-2.17 5.52 1.67 3.05-0.49-0.97-2.16 4.36 2.75 6.59-0.39c-9.44-12.36-23.51-9.61-31.96-1.18 1.07-6.27 0.1-11.47-4.03-14.48h-7.4l2.45 5.01 3.33 2.37-3.73-1.78 4.96 8.88-7.5-8.19-6.79-0.2-0.97 7.8 4.05 0.98-2.65 0.2-3.23-2.16-0.13 1.96 4.86 2.94-4.86 2.66v12.92zm39.46-4.28 3.22 4.91 2.23 4.69 2.62 1.08-0.88 4.91c-3.12-5.5-7.78-7.07-14.45-6.38 0.59-6.57-2.15-10.8-6.08-14.84l8.14 4.75 1.07-1.96 1.77 5.68 2.36-2.84z" fill="#36926D"/>
  <path d="m0.03 102.1 31.26 5.22 10.32-3.33-2.15 2.75-5.99 1.76 4.02 0.98-4.02 3.73-7.69-1.47 0.92-4.52-6.67-1.17-20-3.95z" fill="#36926D"/>
  <path d="m0.03 143.2 10.69 1.74c7.89 1.57 11.66 2.95 16.49 8.25l8 7.46c1.8 2.36-2.33 3.73-6 4.42-4.43 0.87-9.09 2.05-9.09 4.01 0 2.17 10.91 2.66 17.6 2.56l14.96-0.39c11.5-0.49 17.1 0.39 26.54 3.92l38.9 17.33 11.5-4.72c5.39-1.47 10.09-2.54 17.49-2.35l17.67 0.3c9.44 0 11.51-2.56 18.29-8.63 4.1-3.34 10.6-5.01 16.74-7.08v29.82l-199.8-0.11v-56.53z" fill="url(#paint0_linear_2054_21730)"/>
  <path d="m117 158.7c3.82-2.56 8.89-5.58 11.84-4.51 2.22 0.78 1.22 2.74-0.94 3.23-1.87 0.4-3.04 0.4-7.7 4.14 4.43 0.59 7.86-1.57 10.71-1.57s2.65 2.46-0.68 5.11l12.44-0.1 20.29-0.1 33.07-0.39c1.96-5.21-1.16-5.6-4.49-6.29-2.58-0.6-2.06-2.37 0.43-3.16 2.23-0.78 2.81-3.34-0.43-3.82-4.96-0.69-10.18 4.9-17.27 7.85 0.95-3.14 4.52-7.26 5.84-9.72-2.74 1.47-6.13 6.68-9.96 7.26-1.97 0.3-3.26-2.45-1.29-4.61 1.29-1.37 1.29-3.43-2.44-3.34-3.23 0.1-6.35 2.85-11.21 2.46-5.15-0.49-6.12-0.69-10.98 2.26l-9.25-1.77-5.16-2.55-7.5 0.78-11.5 11.01 6.18-2.17z" fill="#CC9C43"/>
  <path d="m113.5 174.4c-2.59 0-3.5 0.71-3.21 1.57 0.3 0.85 2.6 0.98 4.5 0.85 2.4-0.17 2.98-0.77 2.72-1.47s-1.52-0.95-4.01-0.95z" fill="#CC9C43"/>
  <path d="m152 173.8c-5 0-6.7 1.45-6.34 2.76 0.35 1.3 3.95 1.72 8.5 1.48 4.8-0.25 5.74-1.23 5.39-2.08-0.36-0.86-2.75-2.16-7.55-2.16z" fill="#CC9C43"/>
  <path d="m170.1 189.9c-3.39 0-4.28 0.85-3.99 1.7 0.3 0.86 2.6 1.08 4.5 1.08 3.08 0 4.03-0.67 3.9-1.52-0.13-0.86-1.02-1.26-4.41-1.26z" fill="#F4DF8E"/>
  <path d="m138.3 158.4c-1.97 0.2-2.73 0.89-2.37 1.58s1.73 0.88 3.29 0.59c1.57-0.3 1.92-1.18 1.57-1.77-0.36-0.59-1.05-0.59-2.49-0.4z" fill="#F4DF8E"/>
  <path d="m194.1 146.2c-1.2 0-1.59 0.69-1.44 1.47 0.15 0.79 1.1 0.86 1.89 0.56 0.79-0.29 1.31-0.88 0.95-1.57s-0.72-0.46-1.4-0.46z" fill="#CC9C43"/>
  <path d="m187.7 144.4c-1.26 0-1.62 0.69-1.49 1.48 0.13 0.78 1.23 0.85 2.16 0.46 0.79-0.36 1.05-0.95 0.79-1.45-0.26-0.49-0.52-0.49-1.46-0.49z" fill="#CC9C43"/>
  <path d="m33.86 177.2c-3.09 0-3.81 0.59-3.68 1.57s1.83 0.98 4.67 0.78c2.84-0.19 3.36-0.88 3.17-1.66-0.2-0.79-1.27-0.69-4.16-0.69z" fill="#F4DF8E"/>
  <path d="m46.3 166c-1.26-0.19-1.78 0.49-1.59 1.18 0.2 0.69 1.33 0.94 2.49 0.82 1.23-0.13 1.42-0.72 1.16-1.41-0.25-0.69-1.04-0.49-2.06-0.59z" fill="#CC9C43"/>
  <path d="m67.51 190.3c-2.1 0-2.49 0.59-2.36 1.08s1.69 0.88 3.26 0.78c1.57-0.09 2.09-0.68 1.96-1.27s-1.14-0.59-2.86-0.59z" fill="#F4DF8E"/>
  <path d="m11.41 156.4c-4.86 0.49-5.38 1.28-4.92 2.27 0.45 0.98 5.44 1.18 8.39 1.77 4.86 0.98 8.15 1.08 8.28-0.39 0.13-1.48-6.08-4.14-11.75-3.65z" fill="#F4DF8E"/>
  <path d="m9.01 121.5c-0.79 0.59-0.1 2.06 1.32 2.36 1.08 0.24 1.6-0.5 1.08-1.38s-1.79-1.47-2.4-0.98z" fill="#CC9C43"/>
  <path d="m13.81 134.1c-1.6 1.18-0.62 3.24 2.04 4.71-2.74 0-6.84 0.2-7.84 1.18-1.26 1.27 1.51 2.64 4.1 3.13 3.92 0.69 5.59 1.09 8.71 2.85 2.25 1.23 3.47 2.02 6.19 1.23l0.76-1.86c-1.63-2.17-3.61-3.84-5.84-5.9-2.85-2.65-6.14-6.79-8.12-5.34z" fill="#CC9C43"/>
  <path d="m5.11 128.5c-2.39 0.49-1.9 2.75 1.3 4.12 2.95 1.28 4.18-0.1 3.66-1.47s-2.91-2.94-4.96-2.65z" fill="#CC9C43"/>
  <path d="m14.91 127.8c-0.78 1.66 0.35 2.84 1.38 3.23 1.39 0.59 1.84-0.59 1.32-2.35-0.52-1.77-2.01-2.26-2.7-0.88z" fill="#CC9C43"/>
  <path d="m164.3 82.09c-9.06-0.49-12.15-1.96-11.46-3.33 0.49-1.04 14.25-1.04 25.75-1.04 13.31 0 19.6 0.39 19.47 1.04-0.26 1.17-4.36 1.86-13.8 2.15-6.57 0.2-12.13 0.98-19.96 1.18z" fill="#F4DF8E"/>
  <path d="m181.8 83.56c-6.34 0-8.73-0.78-8.27-1.47s3.51 0 9.19-0.2c6.17-0.19 8.46 0.5 8.46 1.38s-3.89 0.29-9.38 0.29z" fill="#F4DF8E"/>
  <path d="m25.41 139.9c0.36 6.17 4.55 9.95 11.02 10.15l5.86 0.68 4.36-0.3c6.22-1.27 9.07-6.17 10.21-9.9l23.62 5.3-0.52 4.7c0.26 8.46 4.85 14.55 14.01 15.52l6.12 1.08 7.83-3.81c6.4-3.16 9.16-10.23 9.81-10.33l8.96-6.66h5.16c2.56 2.73 6.56 3.52 8.63 0.96l1.23-1.16 6.21 1.08c-0.75 9.21 1.99 16.6 11.01 17.67l8.21 0.2 5.7-5.6 2.39-8.07 1.13-15-3.75-8.06-8.68-2.36-8.64 14.01-35.85-0.79-2.72-1.86-2.16-6.38-18.79-2.46-15.39-1.37-5.46 0.1-7.73-2.27-2.17-5-26.26-7.26-11.77 12.75c-2.36 4.72-2.11 8.75-1.58 14.44z" fill="#124A3B"/>
  <path d="m33.51 137.7c0.36 7.31 4.31 11.91 8.81 12.99-9.11-0.88-15.26-3.52-16.91-10.83-1.29-6.07 0.33-13.15 2.6-15.42l6.8-1.35c-2.02 4.01-1.66 8.92-1.3 14.61z" fill="#0A4538"/>
  <path d="m154.6 85.03-19.28-2.75-1.57 3.54 18.96 2.36c1.63 0.3 2.57 1.08 2.44 3.05l-3.15 22.91 4.2 0.49 2.56-23.9c0.46-2.65-0.61-4.71-4.16-5.7z" fill="#CC9C43"/>
  <path d="m158 91.32 12.64 17.99c1.07 1.57 1 3.53 0.48 6.77l-2.95-0.39 0.72-3.83-11.8-16.68 0.91-3.86z" fill="#CC9C43"/>
  <path d="m43.86 96.06 28.23-1.27 53.17 6.37-0.94 8.78-40.23-3.33-2.95-4.34-37.28-6.21z" fill="#54B08B"/>
  <path d="m126.9 104.3 9.09-22.94c0.65-1.37-0.98-2.25-2.3-2.15l-47.03-4.14c-1.57-0.1-2.29 0.49-3.29 2.15l-11.3 17.53 53.17 7.28 1.66 2.27z" fill="#287256"/>
  <path d="m75.81 93.52 9.75-15.67 46.29 4.54-6.91 17.01-49.13-5.88z" fill="#B6E1DB"/>
  <path d="m129.5 100.9 2.23-2.85c0.85-0.69 2.11-0.78 3.41-0.39l0.65-4.4c0.03-1.22 0.94-1.91 2.33-1.71l6.7 0.69c1.42 0.29 1.88 1.17 1.55 3.13l-0.65 4.13 1.56 0.3c1.5 0.39 2.02 1.27 1.34 3.33l-3.23 9.89-8.44-0.98-6.83-7.28-0.62-3.86z" fill="#CC9C43"/>
  <path d="m106.9 89.26-0.85 5.5-3.09-0.39c-1.2-0.1-1.46 0.88-1.59 1.95l-0.32 1.67 12.51 1.66 2.46-0.88 0.91-8.72c0.13-1.27-0.56-2.35-1.88-2.35l-5.9-0.3c-1.26-0.19-2.04 0.49-2.25 1.86z" fill="#CC9C43"/>
  <path d="m112.2 98.81c1.07-3.04 3.01-4.31 5.85-4.02 3.7 0.39 5.67 2.45 6.61 4.91l-0.94 0.78c-1.39-2.55-3.19-3.73-5.86-4.02-2.23-0.3-3.43 0.58-4.21 2.55l-1.45-0.2z" fill="#0A4538"/>
  <path d="m25.31 116.1 10.65-0.88 4.86-14.72c1.19-2.75 3.79-4.02 6.9-3.73l32.01 5.42c3.15 0.59 4.48 3.05 4.48 5.9l41.05 1.97 3.93-8.07 7.73 10.13 41.15 3.15c1.56 0.1 1.79 1.76 1.37 3.92l-2.23 16.17-1.9 0.88-1.13-8.82-9.44-0.49-10.19 15.97-25.49-1.66-8.99-1.66-3.73-19.44c-0.95-3.04-5.64-5.2-9.77-5.5l-19.38-2.17c-3.23-0.29-5.13 4.44-7.07 8.88l0.95 4.9-10.19 0.68-4.43-11.21c-0.69-1.96-1.98-2.94-4.4-3.23l-15.04-2.85c-2.79-0.59-4.79 0.39-6.45 2.95l-4.13 5.79-12.72-2.16-1 3.83c-0.36 2.27 1.61 4.93 6.04 6.4l7.27 2.85 0.69-9.25-2.23-1.67-9.17-2.28z" fill="url(#paint1_linear_2054_21730)"/>
  <path d="m150.5 113.9-0.36 10.33-6.64 11.31-14.83-0.59c-3.56-0.2-4.08-1.67-3.62-5.71l2.16-24.16 9.51 7.97 13.78 0.85z" fill="#59C190"/>
  <path d="m157.4 122.4-10.19 16.48-22.14-2.56-1.13 2.46 27.75 1.18 9.44-16.87 1.56-1.76h-2.59c-1.32-0.2-2.01-0.2-2.7 1.07z" fill="#39936F"/>
  <path d="m176.9 135.2h3.73c1.12 0 1.58 0.78 0.89 3.34l-0.88 2.75-3.92 0.78 0.18-6.87z" fill="#CC9C43"/>
  <path d="m154.5 150.1c0 8.26 4.66 14.94 10.59 14.94 7.08 0 10.74-10.62 10.74-18.08 0-8.18-3.89-13.97-8.92-13.48-6.76 0.59-12.41 8.53-12.41 16.62z" fill="#0A4538"/>
  <path d="m160.4 149.4c0 6.58 3.26 10.42 6.62 9.73 3.72-0.78 5.75-6.58 5.75-11.59 0-5.3-2.87-8.48-5.46-7.99-3.43 0.69-6.91 5.15-6.91 9.85z" fill="#F0CC75" stroke="#91713A" stroke-miterlimit="10" stroke-width=".75"/>
  <path d="m163.1 149.9c0 3.74 1.6 5.4 3.26 5.2 1.84-0.29 3.2-3.34 3.2-6.28 0-3.14-1.5-5.1-2.94-4.9-1.8 0.3-3.52 2.85-3.52 5.98z" stroke="#91713A" stroke-miterlimit="10" stroke-width=".75"/>
  <path d="m164.8 149.4c0 1.96 0.95 2.75 1.74 2.55 1.01-0.2 1.76-1.95 1.76-3.53 0-1.77-0.94-2.84-1.79-2.64-1.01 0.29-1.71 1.96-1.71 3.62z" fill="#0A4538"/>
  <path d="m82.19 149.1c0 8.84 5.03 16.02 13.47 17.68 8.96 0.69 21-7.66 21.26-21.5 0.19-10.34-5.8-17.12-12.8-16.83-9.57 0.4-21.93 8.35-21.93 20.65z" fill="#0A4538"/>
  <path d="m91.88 149.1c0 8.44 5.15 11.79 10.41 10.91 6.37-1.08 9.73-9.44 9.73-14.44 0-7.06-4.1-10.4-7.53-10.11-6.21 0.5-12.61 7.07-12.61 13.64z" fill="#F0CC75" stroke="#91713A" stroke-miterlimit="10" stroke-width=".75"/>
  <path d="m98.37 148.8c0 4.33 2.3 6.48 4.53 6.09 2.79-0.49 5.15-5 5.15-8.63 0-4.03-2.39-6.29-4.43-5.9-2.81 0.59-5.25 4.53-5.25 8.44z" stroke="#91713A" stroke-miterlimit="10" stroke-width=".75"/>
  <path d="m100.3 148.5c0 2.45 1.3 3.43 2.39 3.14 1.36-0.39 2.43-2.75 2.43-4.71 0-2.15-1.26-3.43-2.36-3.14-1.45 0.4-2.46 2.66-2.46 4.71z" fill="#0A4538"/>
  <path d="m103.3 138.1-0.2 5.2-1.91 0.34-1.06-4.36 3.17-1.18z" fill="#91713A"/>
  <path d="m109.1 145.5-2.8 0.1-0.36 2.26 2.84 1.07 0.32-3.43z" fill="#91713A"/>
  <path d="m106.7 153.6-2.6-1.58-0.91 1.77 0.62 2.65 2.89-2.84z" fill="#91713A"/>
  <path d="m99.86 152.5-2.79-1.67 0.75-2.75 2.04-0.19v4.61z" fill="#91713A"/>
  <path d="m97.82 144.9 1.13-2.66 1.23 1.57-0.65 1.86-1.71-0.77z" fill="#91713A"/>
  <path d="m143.6 116.1 4.76 0.39c0.69 0.1 0.88 2.47-0.06 2.37l-4.5-0.39c-1.01-0.09-1.07-2.37-0.2-2.37z" fill="#0A4538"/>
  <path d="m42.63 100.1c-3.01 0-4.22 3.25-4.22 5.13 0 2.66 1.6 3.84 3.5 3.84 2.8 0 3.74-2.85 3.74-4.92 0-2.36-1.23-4.05-3.02-4.05z" fill="#EEF9E5"/>
  <path d="m77.17 106.2c-3.36 0-4.37 3.15-4.37 4.81 0 2.66 1.6 4.43 3.67 4.43 3.08 0 4.14-3.15 4.14-4.92 0-2.65-1.26-4.32-3.44-4.32z" fill="#EEF9E5"/>
  <path d="m76.31 118.5c-1.97 0-2.43 1.27-2.43 2.15 0 1.37 0.95 2.25 2.08 2.25 1.69 0 2.38-1.57 2.38-2.55 0-1.27-0.88-1.85-2.03-1.85z" fill="#C97339"/>
  <path d="m37.1 119 2.85-4.63c1.26-2.16 2.27-3.34 4.36-3.04l15.58 2.56c2.23 0.39 3.52 0.87 4.24 3.34l1.63 6.77 4.43 2.56-1.57 9.02-8.6-1.37-1.84-3.14-21.08-3.72v-8.35z" fill="#CC9C43"/>
  <path d="m43.07 117.2 1.77-3.24c0.62-1.08 1.56-1.27 3.19-0.98l10.89 1.86c1.13 0.2 2.14 0.59 2.5 2.26l1.29 6.01 1.97 0.98-2.1 1.08c-1.81 0.97-2.56 3.92-2.56 9.11l-23.59-5.29v-6.76c0-2.16 1.33-2.78 2.71-2.87l1.56-0.39c0.84-0.2 1.62-0.49 2.37-1.77z" stroke="#F0CC75" stroke-miterlimit="10" stroke-width=".75"/>
  <path d="m69.21 126.9 1.97 0.98 15.17 1.08c0.2 1.17-1.43 6.18-3 6.76-1.42 0.59-12.92 0.99-14.34 0.89-1.63-0.1-2.32-1.08-2.32-2.25 0-3.25 0.23-7.76 2.52-7.46z" fill="#CC9C43"/>
  <path d="m47.13 101.8 2.4 0.2-2.17 8.68-1.9-0.39 1.67-8.49z" fill="#0A4538"/>
  <path d="m52.22 102.2 2.4 0.39-2.17 8.78-2.04-0.39 1.81-8.78z" fill="#0A4538"/>
  <path d="m56.21 102.8 2.4 0.29-1.85 8.98-2.04-0.39 1.49-8.88z" fill="#0A4538"/>
  <path d="m61.01 103.3 2.46 0.39-2.23 9.47-2.16-0.39 1.93-9.47z" fill="#0A4538"/>
  <path d="m65.51 103.7 2.3 0.4-2.05 9.83-2.1-0.39 1.85-9.84z" fill="#0A4538"/>
  <path d="m50.8 113.9 1.49 0.39-1.07 4.62-1.84-0.49 1.42-4.52z" fill="#0A4538"/>
  <path d="m55.83 114.9 1.8 0.29-1.07 4.23-1.84-0.49 1.11-4.03z" fill="#0A4538"/>
  <path d="m59.76 115.7 1.9 0.49-1.13 3.93-1.8-0.59 1.03-3.83z" fill="#0A4538"/>
  <path d="m95.98 78.86-17.44 14.86 6.89 0.91 17.5-15.19-6.95-0.58z" fill="#F3FFFD" opacity=".6"/>
  <path d="m109 80.03-16.66 15.15 3.86 0.59 15.52-15.55-2.72-0.19z" fill="#F3FFFD" opacity=".6"/>
  <defs>
    <linearGradient id="paint0_linear_2054_21730" x1="99.92" x2="99.92" y1="102.1" y2="199.8" gradientUnits="userSpaceOnUse">
      <stop stop-color="#F8E186" offset="0"/>
      <stop stop-color="#E3B455" offset="1"/>
    </linearGradient>
    <linearGradient id="paint1_linear_2054_21730" x1="101.1" x2="101.1" y1="94.69" y2="129.3" gradientUnits="userSpaceOnUse">
      <stop stop-color="#3BA57D" offset="0"/>
      <stop stop-color="#59C190" offset="1"/>
    </linearGradient>
  </defs>
</svg>