<svg xmlns="http://www.w3.org/2000/svg" width="207" height="214" fill="none" viewBox="0 0 207 214">
<!-- SVG created with Arrow, by QuiverAI (https://quiver.ai) -->
  <path d="m6.71 212.2 188.3-8.01-5.53-201-188.4 17.66 5.7 191.4z" fill="#E0E1E2"/>
  <path d="m190.6 7.05-188.8 13.7 11.53 149.2 44.93 36.62 147.5-12.2-15.12-187.4z" fill="url(#paint0_linear_120_1139)"/>
  <path d="m37.48 8.21 112.9-6.46 2.66 4.9-2.39 3.26 4.52 5.05-3.05 4.13 3.19 2.93-2.54 3.33 3.79 4.57-113.2 13.17 2.54-4.15-4.8-4.14 2.39-3.99-4.39-4.15 3.06-6.64-2.66-2.31 1.19-3.09-2.54-3.85-0.71-2.56z" fill="url(#paint1_linear_120_1139)"/>
  <path d="m13.31 170 41.19-3.06 3.44 39.41-44.63-36.35z" fill="url(#paint2_linear_120_1139)"/>
  <path d="m135.7 55.91-1.83-2.19-1.84-0.21-2.74-1.6-1.12 0.21c-1.53 0.24-5.7 2.71-6.57 4.25-6.8 7.47-13.98 17.43-18.48 23.83l-0.88 1.2 0.05 0.64-1.19 1.19-0.14 0.8-0.81 0.57-0.88 1.54-1.19 1.4-0.14 0.64-0.5 0.22-8.45 12.22-0.14 0.65-5.38 8.43-2.79 6.03-7.19 3.03-0.85 1.75 1.25 4.77 0.83 1.06c-4.5 5.82-11.68 22.79-14.14 30.71l-0.88 4.65 0.5 2.48 1.54 0.83 1.39-0.14 1.66 1.51 1.98 0.13 2.32-0.44 0.4-3.46 6.21-15.18 10.53-23.67 1.5-1.2 13.02-4.63 13.48-3.61 2.04-0.29 0.55 1.28-0.71 2.56-0.37 0.29-0.21 1.04 0.73 0.39-0.87 0.43-0.14 1.28 0.45 0.42-1.11 1.01-0.72 8.58 0.03 8.6 0.56 0.42 0.24 0.21 0.26 7.72 1.29 4.65 3 3.23 2.45 0.92 1.31 0.75 3.88-1.02-2.82-5.03-0.7-11.94 1.52-15.36 3.35-18.37 4.61-18.71 2.86-16.44 0.54-13.91-0.55-1.12zm-59.04 80.17-0.6 0.57-0.14 0.65-1.02 1.39-0.14 0.64-0.88 0.44 0.79-2.11 1.57-2.17 0.42 0.59zm0.59-3.82-0.38 0.43-0.42-0.59 2.37-4.49 0.8-0.57 0.22 1.22-2.59 4zm-1.29-3.09 0.22-0.8 2.53-1.58 1.14 0.27-1.45 0.51-1.02 1.53-1.42 0.07zm3.18 2.64-0.59 0.29 0.42-1.78 0.73-0.28-0.56 1.77zm0.55-2.55 0.02-0.65 0.3-0.15-0.32 0.8zm-11.83 17.91 7.23-16.21 0.81-0.44-7.71 16.51-0.33 0.14zm37.23-70.27c4.3-5.95 9.96-12.49 17.48-19.79l1.49-0.86 0.21 0.79-18.22 21.87-0.96-2.01zm-12.52 20.08 2.16-3.57 0.73-0.28-3.24 4.77 0.35-0.92zm-6.58 16.03-0.74 0.28 5.56-10.28 0.73-0.28-5.55 10.28zm6.47-11.3-0.73 0.28 2.14-3.85 0.73-0.28-2.14 3.85zm7.58-1.39-0.74 0.28 1.51-2.73 0.81-0.43-1.58 2.88zm2.08-3.99-1.25 0.86 1.58-2.41 0.66-0.11-0.99 1.66zm1.92-5.31-1.02 1.54-0.43-0.43 1.3-2.21 0.52-0.1-0.37 1.2zm2.06-3.99-1.63 2.17-0.38-0.28 1.78-2.88 0.43 0.15-0.2 0.84zm1.17-2.54-1.12 1.54-0.42-0.43 1.47-1.91 0.42 0.15-0.35 0.65zm4.49-7.16-0.73 0.28 1.58-2.41 0.53-0.17-1.38 2.3zm9.21-9.67 0.73-0.28-1.57 1.91-0.59-0.38 1.43-1.25zm-4.15 2.5-8.01 9.67-0.59-0.38 14.33-15.39 0.66-0.11-6.39 6.21zm2.13 37.1-0.4-0.59 6.34-24.53 0.37 0.15-5.07 24.81-1.24 0.16zm2.92 1.36-0.81-0.6 5.81-23.2 0.35 0.43-5.35 23.37zm-0.73 10.29-1.71 10.71-0.39 9.2-0.14 8.15-1.16-1.06 0.16-9.2 0.89-10.41 1.2-8.58 1.15 1.19zm7.76-37.9-0.66 0.1 0.53-3.18 0.42 0.15-0.29 2.93z" fill="url(#paint3_linear_120_1139)"/>
  <defs>
    <linearGradient id="paint0_linear_120_1139" x1="50.9" x2="157.3" y1="9.051" y2="197.5" gradientUnits="userSpaceOnUse">
      <stop stop-color="#FFCD4B" offset="0"/>
      <stop stop-color="#FFD14C" offset="1"/>
    </linearGradient>
    <linearGradient id="paint1_linear_120_1139" x1="96.09" x2="100.1" y1="-1.264" y2="41.15" gradientUnits="userSpaceOnUse">
      <stop stop-color="#E8E9EB" offset="0"/>
      <stop stop-color="#F1E1B1" offset="1"/>
    </linearGradient>
    <linearGradient id="paint2_linear_120_1139" x1="30.45" x2="47.3" y1="167.8" y2="202.7" gradientUnits="userSpaceOnUse">
      <stop stop-color="#E09E14" offset="0"/>
      <stop stop-color="#F6BF35" offset="1"/>
    </linearGradient>
    <linearGradient id="paint3_linear_120_1139" x1="117.2" x2="117.2" y1="51.91" y2="166.7" gradientUnits="userSpaceOnUse">
      <stop stop-color="#21160E" offset="0"/>
      <stop stop-color="#3A2A11" offset="1"/>
    </linearGradient>
  </defs>
</svg>